<svg xmlns="http://www.w3.org/2000/svg" viewBox="0 0 966 914">
<rect width="966" height="914" fill="#fff"/>
<path d="M64.5 65.5 L466.9 65.5 C615.5 65.5 776.5 255.0 776.5 430.0 C776.5 605.0 615.5 794.5 466.9 794.5 L64.5 794.5 Z" fill="none" stroke="#21274C" stroke-width="21.0"/>
<path d="M112.0 113.0 L452.6 113.0 C585.3 113.0 729.0 277.8 729.0 430.0 C729.0 582.2 585.3 747.0 452.6 747.0 L112.0 747.0 Z" fill="#21274C"/>
<g fill="#fff">
<circle cx="277.0" cy="385.0" r="44.0"/>
<circle cx="173.0" cy="723.0" r="44.0"/>
<circle cx="168.0" cy="475.0" r="44.0"/>
<circle cx="151.0" cy="619.0" r="40.0"/>
<circle cx="147.0" cy="375.0" r="35.9"/>
<circle cx="350.0" cy="300.0" r="30.8"/>
<circle cx="423.0" cy="318.0" r="28.8"/>
<circle cx="487.0" cy="409.0" r="26.8"/>
<circle cx="487.0" cy="355.0" r="25.9"/>
<circle cx="198.0" cy="322.0" r="25.0"/>
<circle cx="437.0" cy="372.0" r="25.0"/>
<circle cx="522.0" cy="462.0" r="24.8"/>
<circle cx="225.0" cy="273.0" r="24.7"/>
<circle cx="136.0" cy="554.0" r="24.5"/>
<circle cx="539.0" cy="411.0" r="23.7"/>
<circle cx="541.0" cy="523.0" r="23.4"/>
<circle cx="144.0" cy="314.0" r="23.0"/>
<circle cx="360.0" cy="438.0" r="22.5"/>
<circle cx="541.0" cy="586.0" r="22.4"/>
<circle cx="382.0" cy="352.0" r="22.0"/>
<circle cx="311.0" cy="255.0" r="21.9"/>
<circle cx="570.0" cy="478.0" r="21.9"/>
<circle cx="404.0" cy="436.0" r="20.9"/>
<circle cx="498.0" cy="508.0" r="20.8"/>
<circle cx="253.0" cy="220.0" r="20.5"/>
<circle cx="523.0" cy="647.0" r="20.4"/>
<circle cx="398.0" cy="264.0" r="20.2"/>
<circle cx="396.0" cy="394.0" r="20.1"/>
<circle cx="582.0" cy="552.0" r="20.1"/>
<circle cx="476.0" cy="459.0" r="20.0"/>
<circle cx="435.0" cy="464.0" r="19.2"/>
<circle cx="504.0" cy="560.0" r="19.2"/>
<circle cx="273.0" cy="290.0" r="19.0"/>
<circle cx="441.0" cy="419.0" r="18.8"/>
<circle cx="458.0" cy="499.0" r="18.8"/>
<circle cx="487.0" cy="700.0" r="18.8"/>
<circle cx="353.0" cy="213.0" r="18.4"/>
<circle cx="495.0" cy="611.0" r="18.1"/>
<circle cx="479.0" cy="297.0" r="18.0"/>
<circle cx="468.0" cy="539.0" r="17.8"/>
<circle cx="572.0" cy="626.0" r="17.7"/>
<circle cx="451.0" cy="235.0" r="17.0"/>
<circle cx="466.0" cy="581.0" r="16.8"/>
<circle cx="472.0" cy="658.0" r="16.6"/>
<circle cx="178.0" cy="551.0" r="16.1"/>
<circle cx="547.0" cy="352.0" r="15.6"/>
<circle cx="453.0" cy="620.0" r="15.6"/>
<circle cx="540.0" cy="694.0" r="15.6"/>
<circle cx="436.0" cy="695.0" r="15.6"/>
<circle cx="428.0" cy="654.0" r="14.8"/>
<circle cx="390.0" cy="721.0" r="14.1"/>
<circle cx="596.0" cy="425.0" r="13.9"/>
<circle cx="395.0" cy="679.0" r="13.6"/>
<circle cx="190.0" cy="404.0" r="13.2"/>
<circle cx="356.0" cy="694.0" r="13.0"/>
<circle cx="340.0" cy="732.0" r="13.0"/>
<circle cx="607.0" cy="358.0" r="12.7"/>
<circle cx="412.0" cy="487.0" r="12.7"/>
<circle cx="429.0" cy="516.0" r="12.6"/>
<circle cx="389.0" cy="467.0" r="12.5"/>
<circle cx="436.0" cy="547.0" r="12.2"/>
<circle cx="240.0" cy="466.0" r="12.2"/>
<circle cx="123.0" cy="419.0" r="11.7"/>
<circle cx="622.0" cy="509.0" r="11.4"/>
<circle cx="314.0" cy="697.0" r="11.4"/>
<circle cx="123.0" cy="665.0" r="11.3"/>
<circle cx="433.0" cy="579.0" r="11.0"/>
<circle cx="652.0" cy="447.0" r="10.6"/>
<circle cx="362.0" cy="404.0" r="10.3"/>
<circle cx="363.0" cy="380.0" r="10.0"/>
<circle cx="238.0" cy="666.0" r="9.5"/>
<circle cx="623.0" cy="596.0" r="9.4"/>
<circle cx="300.0" cy="301.0" r="9.0"/>
<circle cx="181.0" cy="577.0" r="9.0"/>
<circle cx="191.0" cy="651.0" r="8.9"/>
<circle cx="209.0" cy="635.0" r="8.5"/>
<circle cx="120.0" cy="524.0" r="8.1"/>
<circle cx="198.0" cy="356.0" r="8.0"/>
<circle cx="246.0" cy="718.0" r="8.0"/>
<circle cx="437.0" cy="730.0" r="8.0"/>
<circle cx="250.0" cy="305.0" r="7.6"/>
<circle cx="291.0" cy="725.0" r="7.6"/>
<circle cx="164.0" cy="571.0" r="7.1"/>
<circle cx="119.0" cy="582.0" r="7.1"/>
<circle cx="383.0" cy="322.0" r="7.0"/>
<circle cx="231.0" cy="316.0" r="6.4"/>
<circle cx="381.0" cy="417.0" r="6.4"/>
<circle cx="331.0" cy="447.0" r="6.4"/>
<circle cx="354.0" cy="358.0" r="5.8"/>
<circle cx="184.0" cy="351.0" r="5.7"/>
<circle cx="313.0" cy="312.0" r="5.4"/>
<circle cx="202.0" cy="419.0" r="5.4"/>
<circle cx="229.0" cy="451.0" r="5.4"/>
<circle cx="242.0" cy="705.0" r="5.4"/>
<circle cx="300.0" cy="742.0" r="5.4"/>
<circle cx="194.0" cy="535.0" r="5.1"/>
<circle cx="450.0" cy="735.0" r="5.1"/>
<circle cx="297.0" cy="285.0" r="5.0"/>
<circle cx="224.0" cy="305.0" r="5.0"/>
<circle cx="172.0" cy="410.0" r="5.0"/>
<circle cx="116.0" cy="435.0" r="5.0"/>
<circle cx="257.0" cy="463.0" r="5.0"/>
<circle cx="116.0" cy="650.0" r="5.0"/>
<circle cx="116.0" cy="680.0" r="5.0"/>
<path d="M159.0 225.0 Q168.0 246.0 189.0 255.0 Q168.0 264.0 159.0 285.0 Q150.0 264.0 129.0 255.0 Q150.0 246.0 159.0 225.0 Z"/>
<path d="M194.0 169.0 Q201.2 185.8 218.0 193.0 Q201.2 200.2 194.0 217.0 Q186.8 200.2 170.0 193.0 Q186.8 185.8 194.0 169.0 Z"/>
<path d="M305.0 148.5 Q311.4 163.6 326.5 170.0 Q311.4 176.4 305.0 191.5 Q298.6 176.4 283.5 170.0 Q298.6 163.6 305.0 148.5 Z"/>
<path d="M538.0 265.5 Q543.9 279.1 557.5 285.0 Q543.9 290.9 538.0 304.5 Q532.1 290.9 518.5 285.0 Q532.1 279.1 538.0 265.5 Z"/>
<path d="M417.0 161.5 Q422.6 174.4 435.5 180.0 Q422.6 185.6 417.0 198.5 Q411.4 185.6 398.5 180.0 Q411.4 174.4 417.0 161.5 Z"/>
<path d="M521.0 206.5 Q525.6 217.3 536.5 222.0 Q525.6 226.7 521.0 237.5 Q516.4 226.7 505.5 222.0 Q516.4 217.3 521.0 206.5 Z"/>
<path d="M274.0 673.5 Q278.1 683.0 287.5 687.0 Q278.1 691.0 274.0 700.5 Q269.9 691.0 260.5 687.0 Q269.9 683.0 274.0 673.5 Z"/>
<path d="M609.0 280.5 Q612.8 289.2 621.5 293.0 Q612.8 296.8 609.0 305.5 Q605.2 296.8 596.5 293.0 Q605.2 289.2 609.0 280.5 Z"/>
<path d="M669.0 534.0 Q672.6 542.4 681.0 546.0 Q672.6 549.6 669.0 558.0 Q665.4 549.6 657.0 546.0 Q665.4 542.4 669.0 534.0 Z"/>
<path d="M673.0 376.5 Q675.9 383.1 682.5 386.0 Q675.9 388.9 673.0 395.5 Q670.1 388.9 663.5 386.0 Q670.1 383.1 673.0 376.5 Z"/>
<path d="M221.0 578.5 Q222.7 582.4 226.5 584.0 Q222.7 585.6 221.0 589.5 Q219.3 585.6 215.5 584.0 Q219.3 582.4 221.0 578.5 Z"/>
</g>
<circle cx="313.0" cy="571.0" r="118.0" fill="#21274C"/>
<g fill="#fff">
<circle cx="422.0" cy="609.0" r="10.4"/>
<circle cx="402.0" cy="634.0" r="9.8"/>
<circle cx="376.0" cy="653.0" r="8.6"/>
<circle cx="345.0" cy="663.0" r="8.2"/>
<circle cx="313.0" cy="663.0" r="7.1"/>
<circle cx="282.0" cy="655.0" r="6.7"/>
<circle cx="255.0" cy="638.0" r="5.7"/>
<circle cx="234.0" cy="613.0" r="5.0"/>
</g></svg>